{
  "accessors": [
    {
      "bufferView": 2,
      "componentType": 5126,
      "count": 14,
      "max": [
        0.9887089729309082,
        -0.6411889791488647,
        0.11037400364875793
      ],
      "min": [
        -0.9887099862098694,
        -0.7060059905052185,
        -0.5988810062408447
      ],
      "type": "VEC3"
    },
    {
      "bufferView": 2,
      "byteOffset": 168,
      "componentType": 5126,
      "count": 14,
      "max": [
        0.0,
        1.0,
        0.0
      ],
      "min": [
        0.0,
        -0.9994651079177856,
        -0.09034782648086548
      ],
      "type": "VEC3"
    },
    {
      "bufferView": 1,
      "componentType": 5126,
      "count": 14,
      "max": [
        0.9901160001754761,
        0.4432249963283539
      ],
      "min": [
        0.0062024397775530815,
        0.37802499532699585
      ],
      "type": "VEC2"
    },
    {
      "bufferView": 0,
      "componentType": 5125,
      "count": 24,
      "type": "SCALAR"
    },
    {
      "bufferView": 2,
      "byteOffset": 336,
      "componentType": 5126,
      "count": 7900,
      "max": [
        0.9022499918937683,
        -0.6424369812011719,
        0.11164700239896774
      ],
      "min": [
        -0.9036139845848083,
        -0.6525869965553284,
        -0.54926598072052
      ],
      "type": "VEC3"
    },
    {
      "bufferView": 2,
      "byteOffset": 95136,
      "componentType": 5126,
      "count": 7900,
      "max": [
        0.9963236451148987,
        1.0,
        0.9961703419685364
      ],
      "min": [
        -0.9962998628616333,
        0.08415739238262177,
        -0.9961697459220886
      ],
      "type": "VEC3"
    },
    {
      "bufferView": 1,
      "byteOffset": 112,
      "componentType": 5126,
      "count": 7900,
      "max": [
        0.9943090081214905,
        0.3664509952068329
      ],
      "min": [
        0.005691649857908487,
        0.004635270219296217
      ],
      "type": "VEC2"
    },
    {
      "bufferView": 0,
      "byteOffset": 96,
      "componentType": 5125,
      "count": 23232,
      "type": "SCALAR"
    },
    {
      "bufferView": 2,
      "byteOffset": 189936,
      "componentType": 5126,
      "count": 3428,
      "max": [
        0.9999989867210388,
        -0.6424070000648499,
        0.7186130285263062
      ],
      "min": [
        -1.0,
        -0.713595986366272,
        -0.6782950162887573
      ],
      "type": "VEC3"
    },
    {
      "bufferView": 2,
      "byteOffset": 231072,
      "componentType": 5126,
      "count": 3428,
      "max": [
        1.0,
        1.0,
        1.0
      ],
      "min": [
        -1.0,
        -1.0,
        -1.0
      ],
      "type": "VEC3"
    },
    {
      "bufferView": 1,
      "byteOffset": 63312,
      "componentType": 5126,
      "count": 3428,
      "max": [
        0.9967690110206604,
        0.9193819761276245
      ],
      "min": [
        0.005839069839566946,
        0.003492180025205016
      ],
      "type": "VEC2"
    },
    {
      "bufferView": 1,
      "byteOffset": 90736,
      "componentType": 5126,
      "count": 3428,
      "max": [
        1.0,
        1.0
      ],
      "min": [
        0.0,
        0.0
      ],
      "type": "VEC2"
    },
    {
      "bufferView": 0,
      "byteOffset": 93024,
      "componentType": 5125,
      "count": 9786,
      "type": "SCALAR"
    },
    {
      "bufferView": 2,
      "byteOffset": 272208,
      "componentType": 5126,
      "count": 23,
      "max": [
        0.986814022064209,
        0.7003989815711975,
        -0.6863800287246704
      ],
      "min": [
        -0.9868149757385254,
        -0.638126015663147,
        -0.7186130285263062
      ],
      "type": "VEC3"
    },
    {
      "bufferView": 2,
      "byteOffset": 272484,
      "componentType": 5126,
      "count": 23,
      "max": [
        0.00013137598580215126,
        0.0006075059645809233,
        1.0
      ],
      "min": [
        -0.000324061926221475,
        0.0,
        -1.0
      ],
      "type": "VEC3"
    },
    {
      "bufferView": 1,
      "byteOffset": 118160,
      "componentType": 5126,
      "count": 23,
      "max": [
        0.9915390014648438,
        0.9904850125312805
      ],
      "min": [
        0.0071324799209833145,
        0.4539949893951416
      ],
      "type": "VEC2"
    },
    {
      "bufferView": 0,
      "byteOffset": 132168,
      "componentType": 5125,
      "count": 60,
      "type": "SCALAR"
    },
    {
      "bufferView": 2,
      "byteOffset": 272760,
      "componentType": 5126,
      "count": 937,
      "max": [
        1.0,
        0.713595986366272,
        -0.6420570015907288
      ],
      "min": [
        -1.0,
        -0.6833189725875854,
        -0.7169709801673889
      ],
      "type": "VEC3"
    },
    {
      "bufferView": 2,
      "byteOffset": 284004,
      "componentType": 5126,
      "count": 937,
      "max": [
        1.0,
        0.9999998807907104,
        1.0
      ],
      "min": [
        -1.0,
        -1.0,
        -1.0
      ],
      "type": "VEC3"
    },
    {
      "bufferView": 1,
      "byteOffset": 118344,
      "componentType": 5126,
      "count": 937,
      "max": [
        0.9959890246391296,
        0.9022579789161682
      ],
      "min": [
        0.005839069839566946,
        0.003492180025205016
      ],
      "type": "VEC2"
    },
    {
      "bufferView": 0,
      "byteOffset": 132408,
      "componentType": 5125,
      "count": 3894,
      "type": "SCALAR"
    }
  ],
  "asset": {
    "extras": {
      "author": "artemtem (https://sketchfab.com/artemtem)",
      "license": "CC-BY-4.0 (http://creativecommons.org/licenses/by/4.0/)",
      "source": "https://sketchfab.com/3d-models/apple-macbook-pro-a1708-dd3649453a034348a31d5c947bcdb222",
      "title": "Apple MacBook Pro A1708"
    },
    "generator": "Sketchfab-10.85.0",
    "version": "2.0"
  },
  "bufferViews": [
    {
      "buffer": 0,
      "byteLength": 147984,
      "name": "floatBufferViews",
      "target": 34963
    },
    {
      "buffer": 0,
      "byteLength": 125840,
      "byteOffset": 147984,
      "byteStride": 8,
      "name": "floatBufferViews",
      "target": 34962
    },
    {
      "buffer": 0,
      "byteLength": 295248,
      "byteOffset": 273824,
      "byteStride": 12,
      "name": "floatBufferViews",
      "target": 34962
    }
  ],
  "buffers": [
    {
      "byteLength": 569072,
      "uri": "scene.bin"
    }
  ],
  "images": [
    {
      "uri": "textures/apple_a1708_macbook_pro_13_mpxq2ua_space_gray_main_mat_baseColor.jpeg"
    },
    {
      "uri": "textures/apple_a1708_macbook_pro_13_mpxq2ua_space_gray_main_mat_metallicRoughness.png"
    },
    {
      "uri": "textures/apple_a1708_macbook_pro_13_mpxq2ua_space_gray_decol_mat_baseColor.png"
    },
    {
      "uri": "textures/apple_a1708_macbook_pro_13_mpxq2ua_space_gray_decol_mat_metallicRoughness.png"
    },
    {
      "uri": "textures/apple_a1708_macbook_pro_13_mpxq2ua_space_gray_decol_mat_emissive.jpeg"
    }
  ],
  "materials": [
    {
      "doubleSided": true,
      "name": "apple_a1708_macbook_pro_13_mpxq2ua_space_gray_main_mat",
      "occlusionTexture": {
        "index": 1
      },
      "pbrMetallicRoughness": {
        "baseColorTexture": {
          "index": 0
        },
        "metallicRoughnessTexture": {
          "index": 1
        }
      }
    },
    {
      "alphaMode": "BLEND",
      "doubleSided": true,
      "emissiveFactor": [
        0.01,
        0.01,
        0.01
      ],
      "emissiveTexture": {
        "index": 4
      },
      "name": "apple_a1708_macbook_pro_13_mpxq2ua_space_gray_decol_mat",
      "pbrMetallicRoughness": {
        "baseColorTexture": {
          "index": 2
        },
        "metallicRoughnessTexture": {
          "index": 3
        }
      }
    }
  ],
  "meshes": [
    {
      "name": "defaultMaterial",
      "primitives": [
        {
          "attributes": {
            "NORMAL": 1,
            "POSITION": 0,
            "TEXCOORD_0": 2
          },
          "indices": 3,
          "material": 1,
          "mode": 4
        }
      ]
    },
    {
      "name": "defaultMaterial",
      "primitives": [
        {
          "attributes": {
            "NORMAL": 5,
            "POSITION": 4,
            "TEXCOORD_0": 6
          },
          "indices": 7,
          "material": 1,
          "mode": 4
        }
      ]
    },
    {
      "name": "defaultMaterial",
      "primitives": [
        {
          "attributes": {
            "NORMAL": 9,
            "POSITION": 8,
            "TEXCOORD_0": 10,
            "TEXCOORD_1": 11
          },
          "indices": 12,
          "material": 0,
          "mode": 4
        }
      ]
    },
    {
      "name": "defaultMaterial",
      "primitives": [
        {
          "attributes": {
            "NORMAL": 14,
            "POSITION": 13,
            "TEXCOORD_0": 15
          },
          "indices": 16,
          "material": 1,
          "mode": 4
        }
      ]
    },
    {
      "name": "defaultMaterial",
      "primitives": [
        {
          "attributes": {
            "NORMAL": 18,
            "POSITION": 17,
            "TEXCOORD_0": 19
          },
          "indices": 20,
          "material": 0,
          "mode": 4
        }
      ]
    }
  ],
  "nodes": [
    {
      "children": [
        1
      ],
      "matrix": [
        1.0,
        0.0,
        0.0,
        0.0,
        0.0,
        2.220446049250313e-16,
        -1.0,
        0.0,
        0.0,
        1.0,
        2.220446049250313e-16,
        0.0,
        0.0,
        0.0,
        0.0,
        1.0
      ],
      "name": "Sketchfab_model"
    },
    {
      "children": [
        2,
        4,
        6,
        8,
        10
      ],
      "matrix": [
        1.0,
        0.0,
        0.0,
        0.0,
        0.0,
        -4.371139006309477e-08,
        0.999999999999999,
        0.0,
        0.0,
        -0.999999999999999,
        -4.371139006309477e-08,
        0.0,
        0.0,
        0.0,
        0.0,
        1.0
      ],
      "name": "Collada visual scene group"
    },
    {
      "children": [
        3
      ],
      "name": "apple_a1708_macbook_pro_13_mpxq2ua_space_gray_body_decol"
    },
    {
      "mesh": 0,
      "name": "defaultMaterial"
    },
    {
      "children": [
        5
      ],
      "name": "apple_a1708_macbook_pro_13_mpxq2ua_space_gray_keyboard"
    },
    {
      "mesh": 1,
      "name": "defaultMaterial"
    },
    {
      "children": [
        7
      ],
      "name": "apple_a1708_macbook_pro_13_mpxq2ua_space_gray_body"
    },
    {
      "mesh": 2,
      "name": "defaultMaterial"
    },
    {
      "children": [
        9
      ],
      "name": "apple_a1708_macbook_pro_13_mpxq2ua_space_gray_display_decol"
    },
    {
      "mesh": 3,
      "name": "defaultMaterial"
    },
    {
      "children": [
        11
      ],
      "name": "apple_a1708_macbook_pro_13_mpxq2ua_space_gray_display"
    },
    {
      "mesh": 4,
      "name": "defaultMaterial"
    }
  ],
  "samplers": [
    {
      "magFilter": 9729,
      "minFilter": 9987,
      "wrapS": 10497,
      "wrapT": 10497
    }
  ],
  "scene": 0,
  "scenes": [
    {
      "name": "Sketchfab_Scene",
      "nodes": [
        0
      ]
    }
  ],
  "textures": [
    {
      "sampler": 0,
      "source": 0
    },
    {
      "sampler": 0,
      "source": 1
    },
    {
      "sampler": 0,
      "source": 2
    },
    {
      "sampler": 0,
      "source": 3
    },
    {
      "sampler": 0,
      "source": 4
    }
  ]
}
