{
  "accessors": [
    {
      "bufferView": 2,
      "componentType": 5126,
      "count": 3267,
      "max": [
        2.692729949951172,
        0.927003026008606,
        0.9744309782981873
      ],
      "min": [
        -0.04092109948396683,
        -0.927003026008606,
        0.1706400066614151
      ],
      "type": "VEC3"
    },
    {
      "bufferView": 2,
      "byteOffset": 39204,
      "componentType": 5126,
      "count": 3267,
      "max": [
        0.9999971389770508,
        1.0,
        1.0
      ],
      "min": [
        -0.9999856352806091,
        -1.0,
        -0.9999710917472839
      ],
      "type": "VEC3"
    },
    {
      "bufferView": 1,
      "componentType": 5126,
      "count": 3267,
      "max": [
        0.0,
        0.0
      ],
      "min": [
        0.0,
        0.0
      ],
      "type": "VEC2"
    },
    {
      "bufferView": 0,
      "componentType": 5125,
      "count": 9420,
      "type": "SCALAR"
    },
    {
      "bufferView": 2,
      "byteOffset": 78408,
      "componentType": 5126,
      "count": 6099,
      "max": [
        2.871299982070923,
        0.9099379777908325,
        0.9743840098381042
      ],
      "min": [
        0.11479700356721878,
        -0.9099379777908325,
        0.17036999762058258
      ],
      "type": "VEC3"
    },
    {
      "bufferView": 2,
      "byteOffset": 151596,
      "componentType": 5126,
      "count": 6099,
      "max": [
        1.0,
        1.0,
        1.0
      ],
      "min": [
        -0.9999537467956543,
        -1.0,
        -0.9999710917472839
      ],
      "type": "VEC3"
    },
    {
      "bufferView": 1,
      "byteOffset": 26136,
      "componentType": 5126,
      "count": 6099,
      "max": [
        0.0,
        0.0
      ],
      "min": [
        0.0,
        0.0
      ],
      "type": "VEC2"
    },
    {
      "bufferView": 0,
      "byteOffset": 37680,
      "componentType": 5125,
      "count": 22716,
      "type": "SCALAR"
    },
    {
      "bufferView": 2,
      "byteOffset": 224784,
      "componentType": 5126,
      "count": 1237,
      "max": [
        3.1952199935913086,
        1.0275700092315674,
        1.384469985961914
      ],
      "min": [
        -1.0251200199127197,
        -1.0275700092315674,
        0.15185199677944183
      ],
      "type": "VEC3"
    },
    {
      "bufferView": 2,
      "byteOffset": 239628,
      "componentType": 5126,
      "count": 1237,
      "max": [
        0.9999942183494568,
        0.9813202619552612,
        0.9999768733978271
      ],
      "min": [
        -0.9654008746147156,
        -0.9813202619552612,
        -0.9766611456871033
      ],
      "type": "VEC3"
    },
    {
      "bufferView": 1,
      "byteOffset": 74928,
      "componentType": 5126,
      "count": 1237,
      "max": [
        0.0,
        0.0
      ],
      "min": [
        0.0,
        0.0
      ],
      "type": "VEC2"
    },
    {
      "bufferView": 0,
      "byteOffset": 128544,
      "componentType": 5125,
      "count": 3633,
      "type": "SCALAR"
    },
    {
      "bufferView": 2,
      "byteOffset": 254472,
      "componentType": 5126,
      "count": 6781,
      "max": [
        3.4639999866485596,
        1.2542999982833862,
        1.7242499589920044
      ],
      "min": [
        -1.04885995388031,
        -1.2542999982833862,
        0.18526600301265717
      ],
      "type": "VEC3"
    },
    {
      "bufferView": 2,
      "byteOffset": 335844,
      "componentType": 5126,
      "count": 6781,
      "max": [
        0.999812126159668,
        0.9994329810142517,
        0.9998149871826172
      ],
      "min": [
        -0.9999537467956543,
        -0.9994301199913025,
        -0.9999277591705322
      ],
      "type": "VEC3"
    },
    {
      "bufferView": 1,
      "byteOffset": 84824,
      "componentType": 5126,
      "count": 6781,
      "max": [
        0.0,
        0.0
      ],
      "min": [
        0.0,
        0.0
      ],
      "type": "VEC2"
    },
    {
      "bufferView": 0,
      "byteOffset": 143076,
      "componentType": 5125,
      "count": 30072,
      "type": "SCALAR"
    },
    {
      "bufferView": 2,
      "byteOffset": 417216,
      "componentType": 5126,
      "count": 21650,
      "max": [
        3.4663000106811523,
        0.9637600183486938,
        1.703950047492981
      ],
      "min": [
        -0.793524980545044,
        -0.9637600183486938,
        -0.0007887809770181775
      ],
      "type": "VEC3"
    },
    {
      "bufferView": 2,
      "byteOffset": 677016,
      "componentType": 5126,
      "count": 21650,
      "max": [
        0.9999740123748779,
        1.0,
        1.0
      ],
      "min": [
        -1.0,
        -1.0,
        -1.0
      ],
      "type": "VEC3"
    },
    {
      "bufferView": 1,
      "byteOffset": 139072,
      "componentType": 5126,
      "count": 21650,
      "max": [
        0.0,
        0.0
      ],
      "min": [
        0.0,
        0.0
      ],
      "type": "VEC2"
    },
    {
      "bufferView": 0,
      "byteOffset": 263364,
      "componentType": 5125,
      "count": 85140,
      "type": "SCALAR"
    },
    {
      "bufferView": 2,
      "byteOffset": 936816,
      "componentType": 5126,
      "count": 65532,
      "max": [
        3.5114200115203857,
        1.5176500082015991,
        1.731950044631958
      ],
      "min": [
        -1.2227100133895874,
        -1.5176500082015991,
        0.07476740330457687
      ],
      "type": "VEC3"
    },
    {
      "bufferView": 2,
      "byteOffset": 1723200,
      "componentType": 5126,
      "count": 65532,
      "max": [
        0.9999971389770508,
        1.0,
        1.0
      ],
      "min": [
        -0.9999884963035583,
        -1.0,
        -1.0
      ],
      "type": "VEC3"
    },
    {
      "bufferView": 1,
      "byteOffset": 312272,
      "componentType": 5126,
      "count": 65532,
      "max": [
        0.0,
        0.0
      ],
      "min": [
        0.0,
        0.0
      ],
      "type": "VEC2"
    },
    {
      "bufferView": 0,
      "byteOffset": 603924,
      "componentType": 5125,
      "count": 247476,
      "type": "SCALAR"
    },
    {
      "bufferView": 2,
      "byteOffset": 2509584,
      "componentType": 5126,
      "count": 51104,
      "max": [
        3.4591801166534424,
        1.5429600477218628,
        1.8003400564193726
      ],
      "min": [
        -1.1178300380706787,
        -1.5429600477218628,
        0.07476740330457687
      ],
      "type": "VEC3"
    },
    {
      "bufferView": 2,
      "byteOffset": 3122832,
      "componentType": 5126,
      "count": 51104,
      "max": [
        1.0,
        1.0,
        1.0
      ],
      "min": [
        -1.0,
        -1.0,
        -1.0
      ],
      "type": "VEC3"
    },
    {
      "bufferView": 1,
      "byteOffset": 836528,
      "componentType": 5126,
      "count": 51104,
      "max": [
        0.0,
        0.0
      ],
      "min": [
        0.0,
        0.0
      ],
      "type": "VEC2"
    },
    {
      "bufferView": 0,
      "byteOffset": 1593828,
      "componentType": 5125,
      "count": 180336,
      "type": "SCALAR"
    },
    {
      "bufferView": 2,
      "byteOffset": 3736080,
      "componentType": 5126,
      "count": 56963,
      "max": [
        3.479789972305298,
        1.2541099786758423,
        1.7497899532318115
      ],
      "min": [
        -1.2345600128173828,
        -1.2541099786758423,
        0.11672300100326538
      ],
      "type": "VEC3"
    },
    {
      "bufferView": 2,
      "byteOffset": 4419636,
      "componentType": 5126,
      "count": 56963,
      "max": [
        1.0,
        1.0,
        1.0
      ],
      "min": [
        -0.9999942183494568,
        -1.0,
        -0.9999971389770508
      ],
      "type": "VEC3"
    },
    {
      "bufferView": 1,
      "byteOffset": 1245360,
      "componentType": 5126,
      "count": 56963,
      "max": [
        0.0,
        0.0
      ],
      "min": [
        0.0,
        0.0
      ],
      "type": "VEC2"
    },
    {
      "bufferView": 0,
      "byteOffset": 2315172,
      "componentType": 5125,
      "count": 227799,
      "type": "SCALAR"
    },
    {
      "bufferView": 2,
      "byteOffset": 5103192,
      "componentType": 5126,
      "count": 5060,
      "max": [
        2.858530044555664,
        0.8252660036087036,
        1.1481200456619263
      ],
      "min": [
        -0.2019679993391037,
        -0.8252660036087036,
        0.13714300096035004
      ],
      "type": "VEC3"
    },
    {
      "bufferView": 2,
      "byteOffset": 5163912,
      "componentType": 5126,
      "count": 5060,
      "max": [
        0.9999884963035583,
        1.0,
        1.0
      ],
      "min": [
        -0.9997889995574951,
        -1.0,
        -0.9999856352806091
      ],
      "type": "VEC3"
    },
    {
      "bufferView": 1,
      "byteOffset": 1701064,
      "componentType": 5126,
      "count": 5060,
      "max": [
        0.0,
        0.0
      ],
      "min": [
        0.0,
        0.0
      ],
      "type": "VEC2"
    },
    {
      "bufferView": 0,
      "byteOffset": 3226368,
      "componentType": 5125,
      "count": 23154,
      "type": "SCALAR"
    },
    {
      "bufferView": 2,
      "byteOffset": 5224632,
      "componentType": 5126,
      "count": 14024,
      "max": [
        3.4235899448394775,
        0.943664014339447,
        1.094539999961853
      ],
      "min": [
        -1.0824099779129028,
        -0.9436450004577637,
        0.27658501267433167
      ],
      "type": "VEC3"
    },
    {
      "bufferView": 2,
      "byteOffset": 5392920,
      "componentType": 5126,
      "count": 14024,
      "max": [
        0.9998149871826172,
        1.0,
        0.9999537467956543
      ],
      "min": [
        -0.9999537467956543,
        -1.0,
        -0.9999537467956543
      ],
      "type": "VEC3"
    },
    {
      "bufferView": 1,
      "byteOffset": 1741544,
      "componentType": 5126,
      "count": 14024,
      "max": [
        0.0,
        0.0
      ],
      "min": [
        0.0,
        0.0
      ],
      "type": "VEC2"
    },
    {
      "bufferView": 0,
      "byteOffset": 3318984,
      "componentType": 5125,
      "count": 47952,
      "type": "SCALAR"
    },
    {
      "bufferView": 2,
      "byteOffset": 5561208,
      "componentType": 5126,
      "count": 1333,
      "max": [
        3.4024999141693115,
        0.8101750016212463,
        1.0737700462341309
      ],
      "min": [
        0.8999940156936646,
        -0.8101840019226074,
        0.41021299362182617
      ],
      "type": "VEC3"
    },
    {
      "bufferView": 2,
      "byteOffset": 5577204,
      "componentType": 5126,
      "count": 1333,
      "max": [
        0.9997079968452454,
        0.9984206557273865,
        0.9999740123748779
      ],
      "min": [
        -0.9722664952278137,
        -0.9984206557273865,
        -0.9999884963035583
      ],
      "type": "VEC3"
    },
    {
      "bufferView": 1,
      "byteOffset": 1853736,
      "componentType": 5126,
      "count": 1333,
      "max": [
        0.0,
        0.0
      ],
      "min": [
        0.0,
        0.0
      ],
      "type": "VEC2"
    },
    {
      "bufferView": 0,
      "byteOffset": 3510792,
      "componentType": 5125,
      "count": 3720,
      "type": "SCALAR"
    },
    {
      "bufferView": 2,
      "byteOffset": 5593200,
      "componentType": 5126,
      "count": 12484,
      "max": [
        3.5114200115203857,
        1.3557100296020508,
        1.6843899488449097
      ],
      "min": [
        -1.1327999830245972,
        -1.3557100296020508,
        0.042573101818561554
      ],
      "type": "VEC3"
    },
    {
      "bufferView": 2,
      "byteOffset": 5743008,
      "componentType": 5126,
      "count": 12484,
      "max": [
        0.9999537467956543,
        0.999812126159668,
        0.9999971389770508
      ],
      "min": [
        -0.9999971389770508,
        -0.999812126159668,
        -0.9999277591705322
      ],
      "type": "VEC3"
    },
    {
      "bufferView": 1,
      "byteOffset": 1864400,
      "componentType": 5126,
      "count": 12484,
      "max": [
        0.0,
        0.0
      ],
      "min": [
        0.0,
        0.0
      ],
      "type": "VEC2"
    },
    {
      "bufferView": 0,
      "byteOffset": 3525672,
      "componentType": 5125,
      "count": 49188,
      "type": "SCALAR"
    }
  ],
  "asset": {
    "extras": {
      "author": "DatJones (https://sketchfab.com/s.jailen.jones)",
      "license": "CC-BY-4.0 (http://creativecommons.org/licenses/by/4.0/)",
      "source": "https://sketchfab.com/3d-models/mclaren-senna-cf4a708437fe4e149b773673b83922e8",
      "title": "Mclaren Senna"
    },
    "generator": "Sketchfab-11.12.0",
    "version": "2.0"
  },
  "bufferViews": [
    {
      "buffer": 0,
      "byteLength": 3722424,
      "name": "floatBufferViews",
      "target": 34963
    },
    {
      "buffer": 0,
      "byteLength": 1964272,
      "byteOffset": 3722424,
      "byteStride": 8,
      "name": "floatBufferViews",
      "target": 34962
    },
    {
      "buffer": 0,
      "byteLength": 5892816,
      "byteOffset": 5686696,
      "byteStride": 12,
      "name": "floatBufferViews",
      "target": 34962
    }
  ],
  "buffers": [
    {
      "byteLength": 11579512,
      "uri": "scene.bin"
    }
  ],
  "materials": [
    {
      "doubleSided": true,
      "name": "material_0",
      "pbrMetallicRoughness": {
        "baseColorFactor": [
          0.0,
          0.074707,
          0.498047,
          1.0
        ],
        "metallicFactor": 0.0,
        "roughnessFactor": 0.6
      }
    },
    {
      "doubleSided": true,
      "name": "material_1",
      "pbrMetallicRoughness": {
        "baseColorFactor": [
          0.000152743,
          0.224121,
          0.000152743,
          1.0
        ],
        "metallicFactor": 0.0,
        "roughnessFactor": 0.6
      }
    },
    {
      "doubleSided": true,
      "name": "material_2",
      "pbrMetallicRoughness": {
        "baseColorFactor": [
          0.0,
          0.0,
          0.0,
          1.0
        ],
        "metallicFactor": 0.0,
        "roughnessFactor": 0.6
      }
    },
    {
      "alphaMode": "BLEND",
      "doubleSided": true,
      "name": "material_3",
      "pbrMetallicRoughness": {
        "baseColorFactor": [
          0.0,
          0.0,
          0.0,
          0.4
        ],
        "metallicFactor": 0.0,
        "roughnessFactor": 0.6
      }
    },
    {
      "doubleSided": true,
      "name": "material_4",
      "pbrMetallicRoughness": {
        "baseColorFactor": [
          0.0236572,
          0.0238656,
          0.0249023,
          1.0
        ],
        "metallicFactor": 0.0,
        "roughnessFactor": 0.6
      }
    },
    {
      "doubleSided": true,
      "name": "material_5",
      "pbrMetallicRoughness": {
        "baseColorFactor": [
          0.0,
          0.0,
          0.0,
          1.0
        ],
        "metallicFactor": 0.0,
        "roughnessFactor": 0.6
      }
    },
    {
      "doubleSided": true,
      "name": "material_6",
      "pbrMetallicRoughness": {
        "baseColorFactor": [
          0.0236572,
          0.0238656,
          0.0249023,
          1.0
        ],
        "metallicFactor": 0.0,
        "roughnessFactor": 0.6
      }
    },
    {
      "doubleSided": true,
      "name": "material_7",
      "pbrMetallicRoughness": {
        "baseColorFactor": [
          0.127749,
          0.128874,
          0.134473,
          1.0
        ],
        "metallicFactor": 0.0,
        "roughnessFactor": 0.6
      }
    },
    {
      "doubleSided": true,
      "name": "material_8",
      "pbrMetallicRoughness": {
        "baseColorFactor": [
          0.348052,
          0.348633,
          0.331201,
          1.0
        ],
        "metallicFactor": 0.0,
        "roughnessFactor": 0.6
      }
    },
    {
      "doubleSided": true,
      "name": "material_9",
      "pbrMetallicRoughness": {
        "baseColorFactor": [
          0.498047,
          0.0,
          0.0,
          1.0
        ],
        "metallicFactor": 0.0,
        "roughnessFactor": 0.6
      }
    },
    {
      "doubleSided": true,
      "name": "material_10",
      "pbrMetallicRoughness": {
        "baseColorFactor": [
          0.498047,
          0.307129,
          0.0,
          1.0
        ],
        "metallicFactor": 0.0,
        "roughnessFactor": 0.6
      }
    }
  ],
  "meshes": [
    {
      "name": "Object_0",
      "primitives": [
        {
          "attributes": {
            "NORMAL": 1,
            "POSITION": 0,
            "TEXCOORD_0": 2
          },
          "indices": 3,
          "material": 0,
          "mode": 4
        }
      ]
    },
    {
      "name": "Object_1",
      "primitives": [
        {
          "attributes": {
            "NORMAL": 5,
            "POSITION": 4,
            "TEXCOORD_0": 6
          },
          "indices": 7,
          "material": 1,
          "mode": 4
        }
      ]
    },
    {
      "name": "Object_2",
      "primitives": [
        {
          "attributes": {
            "NORMAL": 9,
            "POSITION": 8,
            "TEXCOORD_0": 10
          },
          "indices": 11,
          "material": 2,
          "mode": 4
        }
      ]
    },
    {
      "name": "Object_3",
      "primitives": [
        {
          "attributes": {
            "NORMAL": 13,
            "POSITION": 12,
            "TEXCOORD_0": 14
          },
          "indices": 15,
          "material": 3,
          "mode": 4
        }
      ]
    },
    {
      "name": "Object_4",
      "primitives": [
        {
          "attributes": {
            "NORMAL": 17,
            "POSITION": 16,
            "TEXCOORD_0": 18
          },
          "indices": 19,
          "material": 4,
          "mode": 4
        }
      ]
    },
    {
      "name": "Object_5",
      "primitives": [
        {
          "attributes": {
            "NORMAL": 21,
            "POSITION": 20,
            "TEXCOORD_0": 22
          },
          "indices": 23,
          "material": 5,
          "mode": 4
        }
      ]
    },
    {
      "name": "Object_6",
      "primitives": [
        {
          "attributes": {
            "NORMAL": 25,
            "POSITION": 24,
            "TEXCOORD_0": 26
          },
          "indices": 27,
          "material": 5,
          "mode": 4
        }
      ]
    },
    {
      "name": "Object_7",
      "primitives": [
        {
          "attributes": {
            "NORMAL": 29,
            "POSITION": 28,
            "TEXCOORD_0": 30
          },
          "indices": 31,
          "material": 6,
          "mode": 4
        }
      ]
    },
    {
      "name": "Object_8",
      "primitives": [
        {
          "attributes": {
            "NORMAL": 33,
            "POSITION": 32,
            "TEXCOORD_0": 34
          },
          "indices": 35,
          "material": 7,
          "mode": 4
        }
      ]
    },
    {
      "name": "Object_9",
      "primitives": [
        {
          "attributes": {
            "NORMAL": 37,
            "POSITION": 36,
            "TEXCOORD_0": 38
          },
          "indices": 39,
          "material": 8,
          "mode": 4
        }
      ]
    },
    {
      "name": "Object_10",
      "primitives": [
        {
          "attributes": {
            "NORMAL": 41,
            "POSITION": 40,
            "TEXCOORD_0": 42
          },
          "indices": 43,
          "material": 9,
          "mode": 4
        }
      ]
    },
    {
      "name": "Object_11",
      "primitives": [
        {
          "attributes": {
            "NORMAL": 45,
            "POSITION": 44,
            "TEXCOORD_0": 46
          },
          "indices": 47,
          "material": 10,
          "mode": 4
        }
      ]
    }
  ],
  "nodes": [
    {
      "children": [
        1
      ],
      "matrix": [
        -2.220446049250313e-16,
        -5.551115123125783e-17,
        -1.0,
        0.0,
        1.1102230246251565e-16,
        -1.0,
        2.220446049250313e-16,
        0.0,
        -1.0,
        -2.220446049250313e-16,
        1.110223024625156e-16,
        0.0,
        1.1384330987930298,
        -0.8997757434844975,
        2.0382087230682373,
        1.0
      ],
      "name": "Sketchfab_model"
    },
    {
      "children": [
        2
      ],
      "matrix": [
        1.0,
        0.0,
        0.0,
        0.0,
        0.0,
        0.0,
        1.0,
        0.0,
        0.0,
        -1.0,
        0.0,
        0.0,
        0.0,
        0.0,
        0.0,
        1.0
      ],
      "name": "McLaren_SENNA_2019.wrl.cleaner.materialmerger.gles"
    },
    {
      "children": [
        3,
        5,
        7,
        9,
        11,
        13,
        16,
        18,
        20,
        22,
        24
      ],
      "name": "McLAREM_SENNA_2019"
    },
    {
      "children": [
        4
      ],
      "name": "DefaultShader_10"
    },
    {
      "mesh": 0,
      "name": "Object_4"
    },
    {
      "children": [
        6
      ],
      "name": "DefaultShader_11"
    },
    {
      "mesh": 1,
      "name": "Object_6"
    },
    {
      "children": [
        8
      ],
      "name": "DefaultShader_12"
    },
    {
      "mesh": 2,
      "name": "Object_8"
    },
    {
      "children": [
        10
      ],
      "name": "DefaultShader_2"
    },
    {
      "mesh": 3,
      "name": "Object_10"
    },
    {
      "children": [
        12
      ],
      "name": "DefaultShader_3"
    },
    {
      "mesh": 4,
      "name": "Object_12"
    },
    {
      "children": [
        14,
        15
      ],
      "name": "DefaultShader_4"
    },
    {
      "mesh": 5,
      "name": "Object_14"
    },
    {
      "mesh": 6,
      "name": "Object_15"
    },
    {
      "children": [
        17
      ],
      "name": "DefaultShader_5"
    },
    {
      "mesh": 7,
      "name": "Object_17"
    },
    {
      "children": [
        19
      ],
      "name": "DefaultShader_6"
    },
    {
      "mesh": 8,
      "name": "Object_19"
    },
    {
      "children": [
        21
      ],
      "name": "DefaultShader_7"
    },
    {
      "mesh": 9,
      "name": "Object_21"
    },
    {
      "children": [
        23
      ],
      "name": "DefaultShader_8"
    },
    {
      "mesh": 10,
      "name": "Object_23"
    },
    {
      "children": [
        25
      ],
      "name": "DefaultShader_9"
    },
    {
      "mesh": 11,
      "name": "Object_25"
    }
  ],
  "scene": 0,
  "scenes": [
    {
      "name": "Sketchfab_Scene",
      "nodes": [
        0
      ]
    }
  ]
}
