{
  "accessors": [
    {
      "bufferView": 2,
      "componentType": 5126,
      "count": 3552,
      "max": [
        10.140000343322754,
        13.895999908447266,
        5.552000045776367
      ],
      "min": [
        -9.229999542236328,
        -0.06800000369548798,
        -5.880000114440918
      ],
      "type": "VEC3"
    },
    {
      "bufferView": 2,
      "byteOffset": 42624,
      "componentType": 5126,
      "count": 3552,
      "max": [
        0.9995470643043518,
        0.9998686909675598,
        0.9993273615837097
      ],
      "min": [
        -0.9997760653495789,
        -0.9999593496322632,
        -0.9984272718429565
      ],
      "type": "VEC3"
    },
    {
      "bufferView": 1,
      "componentType": 5126,
      "count": 3552,
      "max": [
        0.9998120665550232,
        0.9452439546585083
      ],
      "min": [
        5.071982741355896e-05,
        8.724257349967957e-05
      ],
      "type": "VEC2"
    },
    {
      "bufferView": 1,
      "byteOffset": 28416,
      "componentType": 5126,
      "count": 3552,
      "max": [
        0.9998120665550232,
        0.9452439546585083
      ],
      "min": [
        5.071982741355896e-05,
        8.724257349967957e-05
      ],
      "type": "VEC2"
    },
    {
      "bufferView": 1,
      "byteOffset": 56832,
      "componentType": 5126,
      "count": 3552,
      "max": [
        0.9998120665550232,
        0.9452439546585083
      ],
      "min": [
        5.071982741355896e-05,
        8.724257349967957e-05
      ],
      "type": "VEC2"
    },
    {
      "bufferView": 0,
      "componentType": 5125,
      "count": 13062,
      "type": "SCALAR"
    },
    {
      "bufferView": 2,
      "byteOffset": 85248,
      "componentType": 5126,
      "count": 5034,
      "max": [
        0.7725642919540405,
        1.7024203538894653,
        0.00842905044555664
      ],
      "min": [
        -0.990763247013092,
        0.05523085594177246,
        -3.511848211288452
      ],
      "type": "VEC3"
    },
    {
      "bufferView": 2,
      "byteOffset": 145656,
      "componentType": 5126,
      "count": 5034,
      "max": [
        0.9996708035469055,
        0.999980628490448,
        0.9659328460693359
      ],
      "min": [
        -0.9996703267097473,
        -0.9998289346694946,
        -0.9919411540031433
      ],
      "type": "VEC3"
    },
    {
      "bufferView": 1,
      "byteOffset": 85248,
      "componentType": 5126,
      "count": 5034,
      "max": [
        0.9913244843482971,
        0.983556866645813
      ],
      "min": [
        0.007672513835132122,
        0.004986703395843506
      ],
      "type": "VEC2"
    },
    {
      "bufferView": 1,
      "byteOffset": 125520,
      "componentType": 5126,
      "count": 5034,
      "max": [
        0.9913244843482971,
        0.983556866645813
      ],
      "min": [
        0.007672513835132122,
        0.004986703395843506
      ],
      "type": "VEC2"
    },
    {
      "bufferView": 1,
      "byteOffset": 165792,
      "componentType": 5126,
      "count": 5034,
      "max": [
        0.9913244843482971,
        0.983556866645813
      ],
      "min": [
        0.007672513835132122,
        0.004986703395843506
      ],
      "type": "VEC2"
    },
    {
      "bufferView": 0,
      "byteOffset": 52248,
      "componentType": 5125,
      "count": 18192,
      "type": "SCALAR"
    },
    {
      "bufferView": 2,
      "byteOffset": 206064,
      "componentType": 5126,
      "count": 1656,
      "max": [
        0.5714149475097656,
        1.3969937562942505,
        0.605499267578125
      ],
      "min": [
        -0.5431489944458008,
        -0.6302893757820129,
        -0.4264054298400879
      ],
      "type": "VEC3"
    },
    {
      "bufferView": 2,
      "byteOffset": 225936,
      "componentType": 5126,
      "count": 1656,
      "max": [
        0.9998314380645752,
        0.928716242313385,
        0.9955207705497742
      ],
      "min": [
        -0.997962236404419,
        -0.9971924424171448,
        -0.9994921684265137
      ],
      "type": "VEC3"
    },
    {
      "bufferView": 1,
      "byteOffset": 206064,
      "componentType": 5126,
      "count": 1656,
      "max": [
        0.6823856234550476,
        0.9166666865348816
      ],
      "min": [
        0.2758152186870575,
        0.1771550178527832
      ],
      "type": "VEC2"
    },
    {
      "bufferView": 0,
      "byteOffset": 125016,
      "componentType": 5125,
      "count": 2484,
      "type": "SCALAR"
    }
  ],
  "asset": {
    "extras": {
      "author": "Justin Rajan (https://sketchfab.com/justin.rajan.6619)",
      "license": "CC-BY-4.0 (http://creativecommons.org/licenses/by/4.0/)",
      "source": "https://sketchfab.com/3d-models/charizard-26e17c46ac854765a0f19c0e96996d82",
      "title": "Charizard"
    },
    "generator": "Sketchfab-11.59.2",
    "version": "2.0"
  },
  "bufferViews": [
    {
      "buffer": 0,
      "byteLength": 134952,
      "name": "floatBufferViews",
      "target": 34963
    },
    {
      "buffer": 0,
      "byteLength": 219312,
      "byteOffset": 134952,
      "byteStride": 8,
      "name": "floatBufferViews",
      "target": 34962
    },
    {
      "buffer": 0,
      "byteLength": 245808,
      "byteOffset": 354264,
      "byteStride": 12,
      "name": "floatBufferViews",
      "target": 34962
    }
  ],
  "buffers": [
    {
      "byteLength": 600072,
      "uri": "scene.bin"
    }
  ],
  "extensionsRequired": [
    "KHR_materials_pbrSpecularGlossiness"
  ],
  "extensionsUsed": [
    "KHR_materials_pbrSpecularGlossiness"
  ],
  "images": [
    {
      "uri": "textures/material_diffuse.png"
    },
    {
      "uri": "textures/material_specularGlossiness.png"
    },
    {
      "uri": "textures/material_1_diffuse.png"
    },
    {
      "uri": "textures/material_1_specularGlossiness.png"
    },
    {
      "uri": "textures/material_2_diffuse.png"
    }
  ],
  "materials": [
    {
      "doubleSided": true,
      "extensions": {
        "KHR_materials_pbrSpecularGlossiness": {
          "diffuseFactor": [
            1.0,
            1.0,
            1.0,
            1.0
          ],
          "diffuseTexture": {
            "index": 0
          },
          "glossinessFactor": 1.0,
          "specularFactor": [
            1.0,
            1.0,
            1.0
          ],
          "specularGlossinessTexture": {
            "index": 1
          }
        }
      },
      "name": "material"
    },
    {
      "doubleSided": true,
      "extensions": {
        "KHR_materials_pbrSpecularGlossiness": {
          "diffuseFactor": [
            1.0,
            1.0,
            1.0,
            1.0
          ],
          "diffuseTexture": {
            "index": 2
          },
          "glossinessFactor": 1.0,
          "specularFactor": [
            1.0,
            1.0,
            1.0
          ],
          "specularGlossinessTexture": {
            "index": 3
          }
        }
      },
      "name": "material_1"
    },
    {
      "doubleSided": true,
      "extensions": {
        "KHR_materials_pbrSpecularGlossiness": {
          "diffuseFactor": [
            1.0,
            1.0,
            1.0,
            1.0
          ],
          "diffuseTexture": {
            "index": 4
          },
          "glossinessFactor": 0.0,
          "specularFactor": [
            0.0,
            0.0,
            0.0
          ]
        }
      },
      "name": "material_2"
    }
  ],
  "meshes": [
    {
      "name": "Object_0",
      "primitives": [
        {
          "attributes": {
            "NORMAL": 1,
            "POSITION": 0,
            "TEXCOORD_0": 2,
            "TEXCOORD_1": 3,
            "TEXCOORD_2": 4
          },
          "indices": 5,
          "material": 0,
          "mode": 4
        }
      ]
    },
    {
      "name": "Object_1",
      "primitives": [
        {
          "attributes": {
            "NORMAL": 7,
            "POSITION": 6,
            "TEXCOORD_0": 8,
            "TEXCOORD_1": 9,
            "TEXCOORD_2": 10
          },
          "indices": 11,
          "material": 1,
          "mode": 4
        }
      ]
    },
    {
      "name": "Object_2",
      "primitives": [
        {
          "attributes": {
            "NORMAL": 13,
            "POSITION": 12,
            "TEXCOORD_0": 14
          },
          "indices": 15,
          "material": 2,
          "mode": 4
        }
      ]
    }
  ],
  "nodes": [
    {
      "children": [
        1
      ],
      "matrix": [
        1.0,
        0.0,
        0.0,
        0.0,
        0.0,
        2.220446049250313e-16,
        -1.0,
        0.0,
        0.0,
        1.0,
        2.220446049250313e-16,
        0.0,
        0.0,
        0.0,
        0.0,
        1.0
      ],
      "name": "Sketchfab_model"
    },
    {
      "children": [
        2
      ],
      "name": "root"
    },
    {
      "children": [
        3
      ],
      "matrix": [
        1.0,
        0.0,
        0.0,
        0.0,
        0.0,
        2.220446049250313e-16,
        1.0,
        0.0,
        0.0,
        -1.0,
        2.220446049250313e-16,
        0.0,
        0.0,
        0.0,
        0.0,
        1.0
      ],
      "name": "GLTF_SceneRootNode"
    },
    {
      "children": [
        4,
        11
      ],
      "name": "root_0"
    },
    {
      "children": [
        5,
        8
      ],
      "matrix": [
        0.000986463691045004,
        -3.041328041011219e-12,
        0.00016398012454188433,
        0.0,
        2.5925704886723494e-06,
        0.0009998749411779867,
        -1.5596241433205772e-05,
        0.0,
        -0.00016395960954557868,
        1.581025517129847e-05,
        0.0009863402782170783,
        0.0,
        0.06493344157934189,
        -0.020642442628741264,
        0.0034968568943440914,
        1.0
      ],
      "name": "node_id10_1"
    },
    {
      "children": [
        6
      ],
      "matrix": [
        23.923625460644836,
        -3.930520836638875e-07,
        -4.251168085458167,
        0.0,
        1.174525358437499e-06,
        24.29837989807087,
        4.36312456901968e-06,
        0.0,
        4.251167084347743,
        -4.501322205380479e-06,
        23.923619826854644,
        0.0,
        -10.188087463378906,
        -167.99899291992188,
        249.43939208984375,
        1.0
      ],
      "name": "node_id4_2"
    },
    {
      "children": [
        7
      ],
      "name": "node_id5_3"
    },
    {
      "mesh": 0,
      "name": "Object_7"
    },
    {
      "children": [
        9
      ],
      "matrix": [
        -27.739273011670498,
        -29.849467876901862,
        -40.40390864745483,
        0.0,
        -28.689934779970525,
        -28.47305065684881,
        40.732280603037715,
        0.0,
        -41.235433873659765,
        39.89028696626795,
        -1.1598600975163218,
        0.0,
        24.79671859741211,
        62.618255615234375,
        332.89093017578125,
        1.0
      ],
      "name": "node_id7_4"
    },
    {
      "children": [
        10
      ],
      "name": "node_id8_5"
    },
    {
      "mesh": 1,
      "name": "Object_10"
    },
    {
      "children": [
        12
      ],
      "matrix": [
        0.03149352807109405,
        -0.017859112427056144,
        0.034031512020228555,
        0.0,
        -0.01136472191425952,
        0.04448458143011049,
        0.03386186100026384,
        0.0,
        -0.034502899427550984,
        -0.0236659693423152,
        0.019510294578782617,
        0.0,
        0.19416551291942596,
        -0.015614689327776432,
        0.2153577357530594,
        1.0
      ],
      "name": "node_id35_6"
    },
    {
      "mesh": 2,
      "name": "Object_12"
    }
  ],
  "samplers": [
    {
      "magFilter": 9729,
      "minFilter": 9987,
      "wrapS": 10497,
      "wrapT": 10497
    }
  ],
  "scene": 0,
  "scenes": [
    {
      "name": "Sketchfab_Scene",
      "nodes": [
        0
      ]
    }
  ],
  "textures": [
    {
      "sampler": 0,
      "source": 0
    },
    {
      "sampler": 0,
      "source": 1
    },
    {
      "sampler": 0,
      "source": 2
    },
    {
      "sampler": 0,
      "source": 3
    },
    {
      "sampler": 0,
      "source": 4
    }
  ]
}
